<mxfile host="app.diagrams.net" modified="2023-04-14T15:06:12.283Z" agent="Mozilla/5.0 (Windows NT 10.0; Win64; x64) AppleWebKit/537.36 (KHTML, like Gecko) Chrome/112.0.0.0 Safari/537.36" version="21.1.7" etag="UMAd_kSatc0Mo5PRYmyY" type="github">
  <diagram name="Page-1" id="-4r1BdAoWu1FFmYvjzX0">
    <mxGraphModel>
      <root>
        <mxCell id="0" />
        <mxCell id="1" parent="0" />
      </root>
    </mxGraphModel>
  </diagram>
</mxfile>
